<svg id="Capa_1" enable-background="new 0 0 512 512" height="512" viewBox="0 0 512 512" width="512" xmlns="http://www.w3.org/2000/svg"><g><g><path d="m369.557 174.75c-10.974 0-21.906-4.439-29.884-13.186-21.418-23.482-51.916-36.95-83.673-36.95-31.756 0-62.254 13.467-83.673 36.95-13.912 15.251-36.821 17.407-53.237 5.756-1.34-.951-2.309-24.524-3.555-25.66-16.498-15.048-18.001-18.093-2.953-34.591 17.998-19.731 39.426-35.284 63.69-46.229 25.144-11.34 51.968-17.09 79.728-17.09 27.759 0 54.584 5.75 79.728 17.091 24.265 10.944 45.693 26.498 63.691 46.23 15.048 16.497 5.059 18.524-11.439 33.573-1.025.935 6.729 25.353 5.639 26.163-7.158 5.315-15.622 7.943-24.062 7.943z" fill="#faf8f8"/><path d="m396.79 164.19c-1.02.94-2.08 1.81-3.17 2.62-27.28-47.5-78.53-79.56-137.12-79.56-58.8 0-110.2 32.29-137.41 80.07-1.34-.95-2.64-1.99-3.88-3.13-16.5-15.05-17.68-40.62-2.63-57.12 18-19.73 39.43-35.29 63.69-46.23 25.15-11.34 51.97-17.09 79.73-17.09s54.58 5.75 79.73 17.09c24.26 10.94 45.69 26.5 63.69 46.23 15.05 16.5 13.87 42.07-2.63 57.12z" fill="#f0e9e6"/><path d="m446.5 310.25c-8.284 0-5.074-10.514-5.074-18.798l-9.926-27.952v-18.25c0-96.495-78.505-175-175-175s-175 78.505-175 175v18.19l-8.755 25.81c0 8.284 2.039 21-6.245 21s-2.436-12.716-2.436-21l-12.564-19.07v-24.93c0-113.037 91.962-205 205-205s205 91.963 205 205v25.34l-10.883 20.862c0 8.284 4.167 18.798-4.117 18.798z" fill="#5d748a"/><path d="m81.5 263.44v31.81c0 8.28-6.72 15-15 15s-15-6.72-15-15v-25.07c9.37-3.76 19.46-6.1 30-6.74z" fill="#3f597d"/><path d="m87.5 280.25c-44.183 0-80 35.817-80 80v9c0 44.183 45.062 71.25 89.245 71.25l30.755-4.537v-147.213l-36.3-8.5z" fill="#aad8de"/><path d="m461.5 270.59v24.66c0 8.28-6.72 15-15 15s-15-6.72-15-15v-31.75c10.55.76 20.64 3.21 30 7.09z" fill="#3f597d"/><path d="m424.5 280.25c44.183 0 80 35.817 80 80l-1.287 9.84c0 23.189-13.343 38.75-29.106 53.362-14.271 13.229-36.453 19.915-57.447 19.915l-31.972-4.096 2.611-139.138 33.501-19.883z" fill="#aad8de"/><path d="m504.31 354.75c-2.82 41.62-37.48 74.5-79.81 74.5-1.657 0-3-1.343-3-3v-138c0-2.73-.24-5.4-.7-8h-36.3v149 20h36.11 3.89c44.183 0 80-35.817 80-80v-9c0-1.85-.06-3.69-.19-5.5z" fill="#94ccd4"/><path d="m90.5 288.25v138c0 1.657-1.343 3-3 3-42.33 0-76.99-32.88-79.81-74.5-.13 1.81-.19 3.65-.19 5.5v9c0 44.183 35.817 80 80 80h3.89 36.11v-20-149h-36.3c-.46 2.6-.7 5.27-.7 8z" fill="#94ccd4"/><path d="m133.5 257.75c-13.255 0-24 10.745-24 24v156.868l6.138 9.632c0 13.255 17.862 19.543 17.862 19.543 13.255 0 24-6.788 24-20.043v-11.277-154.723c0-13.255-10.745-24-24-24z" fill="#faf8f8"/><path d="m157.5 424.75v23c0 6.62-2.69 12.62-7.03 16.97-4.35 4.34-10.35 7.03-16.97 7.03-13.25 0-24-10.75-24-24v-23c0 13.25 10.75 24 24 24 6.62 0 12.62-2.69 16.97-7.03 4.34-4.35 7.03-10.35 7.03-16.97z" fill="#f0e9e6"/><path d="m378.5 257.75c-13.255 0-24 10.745-24 24v156.868l6.138 9.632c0 13.255 17.862 19.543 17.862 19.543 13.255 0 24-6.788 24-20.043v-11.277-154.723c0-13.255-10.745-24-24-24z" fill="#faf8f8"/><path d="m402.5 424.75v23c0 6.62-2.69 12.62-7.03 16.97-4.35 4.34-10.35 7.03-16.97 7.03-13.25 0-24-10.75-24-24v-23c0 13.25 10.75 24 24 24 6.62 0 12.62-2.69 16.97-7.03 4.34-4.35 7.03-10.35 7.03-16.97z" fill="#f0e9e6"/></g><g><path d="m469 286.919v-41.669c0-117.173-95.327-212.5-212.5-212.5-51.595 0-101.379 18.793-140.181 52.918-3.11 2.735-3.414 7.474-.679 10.585 2.734 3.109 7.473 3.414 10.585.679 36.063-31.716 82.329-49.182 130.275-49.182 108.902 0 197.5 88.598 197.5 197.5v34.014c-4.814-1.922-9.828-3.446-15-4.537v-29.477c.422-98.854-81.12-182.703-182.5-182.5-101.13-.066-182.795 83.013-182.5 182.5v29.273c-5.168 1.029-10.181 2.494-15 4.352v-33.625c0-44.861 15.517-88.812 43.691-123.756 2.6-3.225 2.094-7.946-1.131-10.546s-7.947-2.093-10.546 1.131c-30.317 37.602-47.014 84.897-47.014 133.171v41.045c-26.372 16.194-44 45.303-44 78.455 0 50.729 41.271 92 92 92h11.317c3.883 12.997 15.941 22.5 30.183 22.5 17.369 0 31.5-14.131 31.5-31.5v-166c0-17.369-14.131-31.5-31.5-31.5-14.242 0-26.3 9.503-30.183 22.5-6.485.037-7.656-.079-14.317.054v-27.554c0-27.967 6.899-54.348 19.07-77.549 18.29 19.243 51.292 19.478 69.797-1.082 20.001-21.928 48.479-34.504 78.132-34.504 7.778 0 15.582.872 23.195 2.591 4.041.908 8.055-1.624 8.968-5.664.912-4.041-1.624-8.056-5.664-8.968-8.696-1.964-17.612-2.959-26.5-2.959-33.86 0-66.377 14.359-89.214 39.395-13.548 14.667-38.093 14.411-50.695-2.486 29.911-45.88 81.674-76.274 140.409-76.274 58.425 0 109.949 30.074 139.931 75.548-5.067 7.644-16.201 14.12-26.875 13.952-9.245 0-18.117-3.915-24.343-10.74-8.138-8.922-17.56-16.559-28.005-22.699-3.57-2.097-8.167-.905-10.267 2.665-2.099 3.571-.906 8.167 2.665 10.267 9.149 5.377 17.4 12.065 24.524 19.875 9.061 9.934 21.973 15.631 35.425 15.631 12.49-.012 25.945-5.393 35.019-15.22 12.395 23.364 19.428 49.984 19.428 78.221v27.592c-1.389-.133-13.426-.086-15.317-.092-3.883-12.997-15.941-22.5-30.183-22.5-17.369 0-31.5 14.131-31.5 31.5v166c0 17.369 14.131 31.5 31.5 31.5 14.242 0 26.3-9.503 30.183-22.5h11.317c50.729 0 92-41.271 92-92 0-32.73-17.184-61.519-43-77.831zm-352-5.169c0-9.098 7.402-16.5 16.5-16.5s16.5 7.402 16.5 16.5v166c0 9.098-7.402 16.5-16.5 16.5s-16.5-7.402-16.5-16.5zm-15 6v154h-10c-42.458 0-77-34.542-77-77s34.542-77 77-77zm318 154h-10v-96.211c0-4.142-3.358-7.5-7.5-7.5s-7.5 3.358-7.5 7.5v102.211c0 9.098-7.402 16.5-16.5 16.5s-16.5-7.402-16.5-16.5v-166c0-9.098 7.402-16.5 16.5-16.5s16.5 7.402 16.5 16.5v28.34c0 4.142 3.358 7.5 7.5 7.5s7.5-3.358 7.5-7.5v-22.34h10c42.458 0 77 34.542 77 77s-34.542 77-77 77z"/><path d="m256 265.25c-4.142 0-7.5 3.358-7.5 7.5v184c0 4.142 3.358 7.5 7.5 7.5s7.5-3.358 7.5-7.5v-184c0-4.142-3.358-7.5-7.5-7.5z"/><path d="m329.5 335.75c-4.142 0-7.5 3.358-7.5 7.5v44c0 4.142 3.358 7.5 7.5 7.5s7.5-3.358 7.5-7.5v-44c0-4.142-3.358-7.5-7.5-7.5z"/><path d="m305 312.25c-4.142 0-7.5 3.358-7.5 7.5v90c0 4.142 3.358 7.5 7.5 7.5s7.5-3.358 7.5-7.5v-90c0-4.142-3.358-7.5-7.5-7.5z"/><path d="m280.5 288.75c-4.142 0-7.5 3.358-7.5 7.5v137.25c0 4.142 3.358 7.5 7.5 7.5s7.5-3.358 7.5-7.5v-137.25c0-4.142-3.358-7.5-7.5-7.5z"/><path d="m231.5 288.75c-4.142 0-7.5 3.358-7.5 7.5v67.542c0 4.142 3.358 7.5 7.5 7.5s7.5-3.358 7.5-7.5v-67.542c0-4.142-3.358-7.5-7.5-7.5z"/><path d="m231.5 391.318c-4.142 0-7.5 3.358-7.5 7.5v34.182c0 4.142 3.358 7.5 7.5 7.5s7.5-3.358 7.5-7.5v-34.182c0-4.142-3.358-7.5-7.5-7.5z"/><path d="m182.5 335.75c-4.142 0-7.5 3.358-7.5 7.5v44c0 4.142 3.358 7.5 7.5 7.5s7.5-3.358 7.5-7.5v-44c0-4.142-3.358-7.5-7.5-7.5z"/><path d="m207 312.25c-4.142 0-7.5 3.358-7.5 7.5v90c0 4.142 3.358 7.5 7.5 7.5s7.5-3.358 7.5-7.5v-90c0-4.142-3.358-7.5-7.5-7.5z"/></g></g></svg>