<svg id="Layer_1" data-name="Layer 1" xmlns="http://www.w3.org/2000/svg" viewBox="0 0 225 96.2"><defs><style>.cls-1,.cls-3{fill:none;}.cls-2{fill:#513496;}.cls-3{stroke:#513496;stroke-width:2px;}.cls-3,.cls-4{stroke-miterlimit:10;}.cls-4{fill:#5c3cab;stroke:#5c3cab;}</style></defs><title>logo</title><path class="cls-1" d="M138.8,289.1l0,0-.11-.3A2.68,2.68,0,0,1,138.8,289.1Z" transform="translate(-137.5 -201.9)"/><path class="cls-2" d="M362.5,214.44v71.12c0,6.92-5,12.54-11.24,12.54H148.74c-6.2,0-11.24-5.62-11.24-12.54V214.44c0-6.92,5-12.54,11.24-12.54H351.26C357.46,201.9,362.5,207.52,362.5,214.44ZM350,280.21V219.79c0-4.25-3.14-7.71-7-7.71H157c-3.86,0-7,3.46-7,7.71v60.42c0,4.25,3.14,7.71,7,7.71H343C346.86,287.92,350,284.46,350,280.21Zm-211.16,8.92-.11-.3a2.68,2.68,0,0,1,.07.27Z" transform="translate(-137.5 -201.9)"/><path class="cls-2" d="M350,219.79v60.42c0,4.25-3.14,7.71-7,7.71H157c-3.86,0-7-3.46-7-7.71V219.79c0-4.25,3.14-7.71,7-7.71H343C346.86,212.08,350,215.54,350,219.79Z" transform="translate(-137.5 -201.9)"/><path class="cls-3" d="M350,280.21c0,4.25-3.14,7.71-7,7.71H157c-3.86,0-7-3.46-7-7.71V219.79c0-4.25,3.14-7.71,7-7.71H343c3.86,0,7,3.46,7,7.71Z" transform="translate(-137.5 -201.9)"/><path class="cls-4" d="M338.72,217.24H161.28a6.68,6.68,0,0,0-6.68,6.66v52.2a6.67,6.67,0,0,0,6.68,6.66H338.72a6.67,6.67,0,0,0,6.68-6.66V223.9A6.68,6.68,0,0,0,338.72,217.24Z" transform="translate(-137.5 -201.9)"/></svg>